<?xml version="1.0" encoding="UTF-8"?>
<svg width="202px" height="45px" viewBox="0 0 202 45" version="1.1" xmlns="http://www.w3.org/2000/svg" xmlns:xlink="http://www.w3.org/1999/xlink">
    <!-- Generator: Sketch 55.1 (78136) - https://sketchapp.com -->
    <title>logo</title>
    <desc>Created with Sketch.</desc>
    <g id="Page-1" stroke="none" stroke-width="1" fill="none" fill-rule="evenodd">
        <g id="Desktop-HD" transform="translate(-81.000000, -36.000000)">
            <g id="logo" transform="translate(81.660156, 36.371094)">
                <path d="M5.7421875,20.7421875 C5.92448008,22.0572982 6.28254941,23.0403613 6.81640625,23.6914062 C7.79297363,24.876308 9.46613398,25.46875 11.8359375,25.46875 C13.2552154,25.46875 14.4075477,25.3125016 15.2929688,25 C16.9726646,24.4010387 17.8125,23.2877686 17.8125,21.6601562 C17.8125,20.7096307 17.3958375,19.9739609 16.5625,19.453125 C15.7291625,18.94531 14.4205818,18.4960957 12.6367188,18.1054688 L9.58984375,17.421875 C6.59503711,16.7447883 4.52474531,16.0091186 3.37890625,15.2148438 C1.43879238,13.8867121 0.46875,11.80991 0.46875,8.984375 C0.46875,6.40623711 1.40624062,4.26433145 3.28125,2.55859375 C5.15625938,0.852856055 7.91013809,0 11.5429688,0 C14.5768381,0 17.1647028,0.804028418 19.3066406,2.41210938 C21.4485784,4.02019033 22.5716141,6.35415137 22.6757812,9.4140625 L16.8945312,9.4140625 C16.7903641,7.68228301 16.0351633,6.45182656 14.6289062,5.72265625 C13.6914016,5.24088301 12.5260486,5 11.1328125,5 C9.58332559,5 8.34635879,5.31249688 7.421875,5.9375 C6.49739121,6.56250312 6.03515625,7.43489023 6.03515625,8.5546875 C6.03515625,9.58333848 6.49088086,10.35156 7.40234375,10.859375 C7.98828418,11.1979184 9.23827168,11.5950498 11.1523438,12.0507812 L16.1132812,13.2421875 C18.2877713,13.7630234 19.9283799,14.4596311 21.0351562,15.3320312 C22.7539148,16.6862047 23.6132812,18.6458205 23.6132812,21.2109375 C23.6132812,23.841159 22.6074319,26.0253819 20.5957031,27.7636719 C18.5839743,29.5019618 15.7422059,30.3710938 12.0703125,30.3710938 C8.32029375,30.3710938 5.37110449,29.5149825 3.22265625,27.8027344 C1.07420801,26.0904862 0,23.7369941 0,20.7421875 L5.7421875,20.7421875 Z M37.1679688,25.703125 C38.7955811,25.703125 40.0455686,25.1237037 40.9179688,23.9648438 C41.7903689,22.8059838 42.2265625,21.1588648 42.2265625,19.0234375 C42.2265625,16.8880102 41.7903689,15.2441464 40.9179688,14.0917969 C40.0455686,12.9394474 38.7955811,12.3632812 37.1679688,12.3632812 C35.5403564,12.3632812 34.2871138,12.9394474 33.4082031,14.0917969 C32.5292925,15.2441464 32.0898438,16.8880102 32.0898438,19.0234375 C32.0898438,21.1588648 32.5292925,22.8059838 33.4082031,23.9648438 C34.2871138,25.1237037 35.5403564,25.703125 37.1679688,25.703125 Z M48.0664062,19.0234375 C48.0664062,22.1484531 47.1679777,24.8209524 45.3710938,27.0410156 C43.5742098,29.2610788 40.8463725,30.3710938 37.1875,30.3710938 C33.5286275,30.3710938 30.8007902,29.2610788 29.0039062,27.0410156 C27.2070223,24.8209524 26.3085938,22.1484531 26.3085938,19.0234375 C26.3085938,15.9505055 27.2070223,13.2877717 29.0039062,11.0351562 C30.8007902,8.78254082 33.5286275,7.65625 37.1875,7.65625 C40.8463725,7.65625 43.5742098,8.78254082 45.3710938,11.0351562 C47.1679777,13.2877717 48.0664062,15.9505055 48.0664062,19.0234375 Z M66.71875,18.984375 C66.71875,17.3437418 66.3444048,15.8919334 65.5957031,14.6289062 C64.8470015,13.3658791 63.6328209,12.734375 61.953125,12.734375 C59.9348857,12.734375 58.5481809,13.6913967 57.7929688,15.6054688 C57.4023418,16.6210988 57.2070312,17.9101484 57.2070312,19.4726562 C57.2070312,21.946627 57.8645768,23.6848908 59.1796875,24.6875 C59.9609414,25.2734404 60.8854113,25.5664062 61.953125,25.5664062 C63.5026119,25.5664062 64.6842407,24.9674539 65.4980469,23.7695312 C66.311853,22.5716086 66.71875,20.9765725 66.71875,18.984375 Z M63.5546875,7.87109375 C66.0416791,7.87109375 68.1477778,8.78905332 69.8730469,10.625 C71.5983159,12.4609467 72.4609375,15.1562322 72.4609375,18.7109375 C72.4609375,22.4609562 71.617847,25.3190006 69.9316406,27.2851562 C68.2454343,29.2513119 66.074232,30.234375 63.4179688,30.234375 C61.725252,30.234375 60.319016,29.8112021 59.1992188,28.9648438 C58.5872365,28.4960914 57.9882842,27.8125045 57.4023438,26.9140625 L57.4023438,38.0078125 L51.8945312,38.0078125 L51.8945312,8.33984375 L57.2265625,8.33984375 L57.2265625,11.484375 C57.8255238,10.5598912 58.4635383,9.83073184 59.140625,9.296875 C60.3776104,8.34634941 61.8489498,7.87109375 63.5546875,7.87109375 Z M88.2226562,7.79296875 C89.537767,7.79296875 90.7324165,8.02083105 91.8066406,8.4765625 C92.8808647,8.93229395 93.7630174,9.62890156 94.453125,10.5664062 C95.0390654,11.3606811 95.3971348,12.1777302 95.5273438,13.0175781 C95.6575527,13.8574261 95.7226562,15.2278551 95.7226562,17.1289062 L95.7226562,29.6289062 L90.0390625,29.6289062 L90.0390625,16.6796875 C90.0390625,15.5338484 89.843752,14.6093785 89.453125,13.90625 C88.94531,12.9166617 87.9817779,12.421875 86.5625,12.421875 C85.0911385,12.421875 83.9746132,12.9134065 83.2128906,13.8964844 C82.4511681,14.8795622 82.0703125,16.282543 82.0703125,18.1054688 L82.0703125,29.6289062 L76.5234375,29.6289062 L76.5234375,0.9375 L82.0703125,0.9375 L82.0703125,11.1132812 C82.8776082,9.8762959 83.8118437,9.01367432 84.8730469,8.52539062 C85.9342501,8.03710693 87.0507754,7.79296875 88.2226562,7.79296875 Z M110.46875,25.703125 C112.096362,25.703125 113.34635,25.1237037 114.21875,23.9648438 C115.09115,22.8059838 115.527344,21.1588648 115.527344,19.0234375 C115.527344,16.8880102 115.09115,15.2441464 114.21875,14.0917969 C113.34635,12.9394474 112.096362,12.3632812 110.46875,12.3632812 C108.841138,12.3632812 107.587895,12.9394474 106.708984,14.0917969 C105.830074,15.2441464 105.390625,16.8880102 105.390625,19.0234375 C105.390625,21.1588648 105.830074,22.8059838 106.708984,23.9648438 C107.587895,25.1237037 108.841138,25.703125 110.46875,25.703125 Z M121.367188,19.0234375 C121.367188,22.1484531 120.468759,24.8209524 118.671875,27.0410156 C116.874991,29.2610788 114.147154,30.3710938 110.488281,30.3710938 C106.829409,30.3710938 104.101571,29.2610788 102.304688,27.0410156 C100.507804,24.8209524 99.609375,22.1484531 99.609375,19.0234375 C99.609375,15.9505055 100.507804,13.2877717 102.304688,11.0351562 C104.101571,8.78254082 106.829409,7.65625 110.488281,7.65625 C114.147154,7.65625 116.874991,8.78254082 118.671875,11.0351562 C120.468759,13.2877717 121.367188,15.9505055 121.367188,19.0234375 Z M137.148438,7.83203125 C139.348969,7.83203125 141.149082,8.40819736 142.548828,9.56054688 C143.948575,10.7128964 144.648438,12.6236846 144.648438,15.2929688 L144.648438,29.6289062 L138.945312,29.6289062 L138.945312,16.6796875 C138.945312,15.5598902 138.795574,14.7005238 138.496094,14.1015625 C137.949216,13.007807 136.90756,12.4609375 135.371094,12.4609375 C133.483063,12.4609375 132.187504,13.2617107 131.484375,14.8632812 C131.11979,15.7096396 130.9375,16.790358 130.9375,18.1054688 L130.9375,29.6289062 L125.390625,29.6289062 L125.390625,8.37890625 L130.761719,8.37890625 L130.761719,11.484375 C131.477868,10.3906195 132.154945,9.60286699 132.792969,9.12109375 C133.938808,8.26171445 135.390625,7.83203125 137.148438,7.83203125 Z M155.507812,5.80078125 L149.863281,5.80078125 L149.863281,0.6640625 L155.507812,0.6640625 L155.507812,5.80078125 Z M149.863281,8.33984375 L155.507812,8.33984375 L155.507812,29.6289062 L149.863281,29.6289062 L149.863281,8.33984375 Z M172.636719,19.2773438 C172.285154,19.498699 171.93034,19.6777337 171.572266,19.8144531 C171.214191,19.9511726 170.722659,20.0781244 170.097656,20.1953125 L168.847656,20.4296875 C167.675775,20.6380219 166.83594,20.8919256 166.328125,21.1914062 C165.468746,21.6992213 165.039062,22.4869738 165.039062,23.5546875 C165.039062,24.5052131 165.302732,25.1920552 165.830078,25.6152344 C166.357425,26.0384136 166.998694,26.25 167.753906,26.25 C168.951829,26.25 170.055333,25.898441 171.064453,25.1953125 C172.073573,24.492184 172.597656,23.2096447 172.636719,21.3476562 L172.636719,19.2773438 Z M169.257812,16.6796875 C170.286463,16.5494785 171.022133,16.3867197 171.464844,16.1914062 C172.259119,15.8528629 172.65625,15.3255244 172.65625,14.609375 C172.65625,13.7369748 172.353519,13.1347673 171.748047,12.8027344 C171.142575,12.4707015 170.253912,12.3046875 169.082031,12.3046875 C167.766921,12.3046875 166.83594,12.6302051 166.289062,13.28125 C165.898436,13.7630232 165.638021,14.4140584 165.507812,15.234375 L160.136719,15.234375 C160.253907,13.3723865 160.774735,11.8424539 161.699219,10.6445312 C163.17058,8.76952187 165.696597,7.83203125 169.277344,7.83203125 C171.608085,7.83203125 173.678376,8.29426621 175.488281,9.21875 C177.298186,10.1432338 178.203125,11.888008 178.203125,14.453125 L178.203125,24.21875 C178.203125,24.8958367 178.216146,25.716141 178.242188,26.6796875 C178.28125,27.4088578 178.391926,27.9036445 178.574219,28.1640625 C178.756511,28.4244805 179.029946,28.6393221 179.394531,28.8085938 L179.394531,29.6289062 L173.339844,29.6289062 C173.170572,29.1992166 173.053386,28.7955748 172.988281,28.4179688 C172.923177,28.0403627 172.871094,27.6106795 172.832031,27.1289062 C172.063798,27.9622437 171.17839,28.6718721 170.175781,29.2578125 C168.977859,29.9479201 167.623705,30.2929688 166.113281,30.2929688 C164.186188,30.2929688 162.594407,29.742844 161.337891,28.6425781 C160.081374,27.5423122 159.453125,25.983083 159.453125,23.9648438 C159.453125,21.3476432 160.462229,19.4531309 162.480469,18.28125 C163.587245,17.643226 165.214833,17.1875014 167.363281,16.9140625 L169.257812,16.6796875 Z M187.480469,22.8320312 C187.597657,23.8216195 187.851561,24.5247375 188.242188,24.9414062 C188.932295,25.6835975 190.208324,26.0546875 192.070312,26.0546875 C193.164068,26.0546875 194.0332,25.8919287 194.677734,25.5664062 C195.322269,25.2408838 195.644531,24.7526074 195.644531,24.1015625 C195.644531,23.4765594 195.384117,23.0013037 194.863281,22.6757812 C194.342445,22.3502588 192.408871,21.7903686 189.0625,20.9960938 C186.653634,20.3971324 184.954432,19.648442 183.964844,18.75 C182.975255,17.8645789 182.480469,16.58855 182.480469,14.921875 C182.480469,12.9557193 183.251945,11.2662831 184.794922,9.85351562 C186.337898,8.44074814 188.509101,7.734375 191.308594,7.734375 C193.964857,7.734375 196.129549,8.26496865 197.802734,9.32617188 C199.47592,10.3873751 200.436197,12.2200391 200.683594,14.8242188 L195.117188,14.8242188 C195.039062,14.1080693 194.837241,13.5416687 194.511719,13.125 C193.899737,12.3697879 192.85808,11.9921875 191.386719,11.9921875 C190.175775,11.9921875 189.313154,12.1809877 188.798828,12.5585938 C188.284503,12.9361998 188.027344,13.3789037 188.027344,13.8867188 C188.027344,14.5247428 188.300779,14.9869777 188.847656,15.2734375 C189.394534,15.5729182 191.328108,16.0872359 194.648438,16.8164062 C196.86199,17.3372422 198.52213,18.1249947 199.628906,19.1796875 C200.722662,20.2474012 201.269531,21.5820232 201.269531,23.1835938 C201.269531,25.2929793 200.485034,27.0149673 198.916016,28.3496094 C197.346997,29.6842515 194.921891,30.3515625 191.640625,30.3515625 C188.294254,30.3515625 185.823576,29.6451894 184.228516,28.2324219 C182.633456,26.8196544 181.835938,25.0195422 181.835938,22.8320312 L187.480469,22.8320312 Z" id="Sophonias" fill="#FFFFFF" fill-rule="nonzero"></path>
                <path d="M1.83984375,41.1289062 L23.8398438,41.1289062" id="Path-2" stroke="#E74D71" stroke-width="6"></path>
                <path d="M184.339844,41.1289062 L201.269531,41.1289062" id="Path-2" stroke="#E74D71" stroke-width="6"></path>
            </g>
        </g>
    </g>
</svg>